<?xml version="1.0" standalone="no"?>
<!DOCTYPE svg PUBLIC "-//W3C//DTD SVG 20010904//EN"
 "http://www.w3.org/TR/2001/REC-SVG-20010904/DTD/svg10.dtd">
<svg version="1.0" xmlns="http://www.w3.org/2000/svg"
 width="1150.000000pt" height="1150.000000pt" viewBox="0 0 1150.000000 1150.000000"
 preserveAspectRatio="xMidYMid meet">
<metadata>
Created by potrace 1.14, written by Peter Selinger 2001-2017
</metadata>
<g transform="translate(0.000000,1150.000000) scale(0.100000,-0.100000)"
fill="#000000" stroke="none">
<path d="M0 5750 l0 -5750 5750 0 5750 0 0 5750 0 5750 -5750 0 -5750 0 0
-5750z m2307 4925 c50 -27 104 -80 131 -130 25 -45 42 -124 28 -132 -6 -4 -50
-9 -97 -11 l-87 -4 -7 40 c-8 49 -63 108 -114 122 -52 14 -146 12 -185 -4 -49
-20 -76 -60 -76 -113 0 -38 5 -50 34 -76 57 -53 64 -57 261 -112 206 -58 299
-143 312 -284 9 -100 -26 -203 -89 -257 -78 -66 -172 -94 -319 -94 -164 0
-253 31 -335 116 -38 40 -84 137 -84 176 0 21 30 28 117 28 l71 0 18 -47 c36
-95 103 -128 239 -121 127 8 175 50 175 153 0 46 -4 57 -33 89 -18 20 -38 36
-43 36 -5 0 -22 7 -38 15 -16 9 -46 20 -65 25 -71 17 -146 40 -166 49 -11 5
-40 17 -65 27 -59 23 -125 76 -158 127 -25 37 -27 48 -27 142 1 89 4 106 25
140 32 51 54 72 104 101 39 23 50 24 233 24 187 0 193 -1 240 -25z m1183 -50
l0 -75 -215 0 -215 0 0 -135 0 -135 208 -2 207 -3 3 -82 3 -83 -211 0 -211 0
3 -157 3 -158 215 -5 215 -5 3 -71 c2 -52 -1 -74 -11 -83 -11 -8 -96 -11 -313
-9 l-299 3 -3 538 -2 537 310 0 310 0 0 -75z m890 3 c12 -40 25 -82 30 -93 4
-11 41 -121 80 -245 79 -247 98 -305 110 -335 4 -11 25 -74 45 -140 21 -66 42
-132 47 -147 6 -15 7 -32 3 -37 -3 -7 -43 -11 -96 -11 -84 0 -90 1 -98 23 -21
55 -41 124 -41 140 0 16 -15 17 -212 15 l-213 -3 -24 -75 c-13 -41 -25 -81
-27 -87 -4 -17 -194 -18 -194 -2 0 18 23 104 30 114 4 6 11 26 15 45 4 19 11
40 15 45 4 6 11 26 15 45 4 19 11 41 16 50 7 15 73 218 144 445 20 66 41 129
45 140 5 11 21 57 36 103 l26 82 113 0 113 0 22 -72z m1248 0 l-3 -73 -147 -3
-148 -3 -2 -462 -3 -462 -92 -3 -93 -3 -2 463 -3 463 -152 3 -153 3 0 74 0 75
400 0 401 0 -3 -72z m-423 -1464 c55 -23 106 -47 145 -69 45 -25 164 -152 190
-202 14 -26 28 -50 32 -53 3 -3 10 -19 14 -35 4 -17 10 -34 15 -40 23 -30 29
-203 29 -788 0 -342 -3 -632 -6 -644 -4 -12 -19 -26 -36 -32 -43 -15 -1743
-15 -1785 -1 -17 6 -35 22 -42 36 -7 17 -11 135 -11 374 l0 350 -100 0 -100 0
2 -917 3 -918 98 -3 97 -3 0 406 c0 344 2 410 15 435 l16 30 909 0 910 0 15
-24 c14 -21 16 -103 13 -752 l-4 -729 -23 -70 c-13 -38 -27 -72 -30 -75 -4 -3
-12 -16 -19 -30 -39 -80 -165 -204 -252 -248 -147 -73 3 -67 -1652 -67 -1176
0 -1490 3 -1500 13 -6 6 -21 12 -33 12 -42 0 -194 90 -255 150 -71 71 -131
179 -159 288 -21 81 -21 86 -21 1587 0 1469 0 1507 20 1578 44 163 130 283
265 372 55 36 158 78 215 88 14 3 689 4 1500 3 1465 -2 1475 -2 1525 -22z
m4160 0 c131 -54 180 -86 254 -163 84 -88 132 -178 157 -294 20 -99 21 -3014
0 -3123 -13 -72 -72 -214 -87 -214 -5 0 -9 -6 -9 -13 0 -19 -87 -107 -150
-153 -60 -43 -84 -55 -175 -88 l-60 -21 -1486 0 c-1093 0 -1490 3 -1500 11 -8
7 -29 15 -46 19 -18 3 -52 17 -75 31 -24 13 -52 28 -64 33 -39 18 -134 113
-179 181 -25 37 -45 71 -45 75 0 4 -7 21 -15 38 -45 99 -45 93 -45 1664 0
1574 -1 1550 45 1650 8 17 15 35 15 40 0 4 20 39 45 76 95 144 226 233 400
271 11 2 684 3 1495 2 1465 -2 1475 -2 1525 -22z m-4190 -4307 c52 -18 96 -37
154 -65 52 -26 174 -150 213 -218 20 -34 47 -93 59 -130 l24 -69 0 -1550 c0
-1475 -1 -1553 -18 -1605 -18 -53 -54 -135 -69 -155 -90 -121 -153 -177 -255
-230 l-58 -30 -1770 0 -1770 0 -3 2014 -2 2015 22 23 22 23 1700 -3 c1588 -2
1704 -4 1751 -20z m4595 1 c20 -21 20 -31 20 -733 0 -627 -2 -713 -16 -733
l-15 -22 -995 0 -994 0 0 -105 0 -105 996 0 c938 0 998 -1 1010 -17 10 -14 13
-90 14 -351 0 -319 -1 -333 -20 -352 -20 -20 -33 -20 -1010 -20 l-990 0 0
-100 0 -100 990 0 c978 0 990 0 1010 -20 20 -20 20 -31 18 -708 l-3 -687
-1765 0 -1765 0 -50 24 c-27 14 -70 38 -95 55 -45 31 -150 133 -150 147 0 4
-6 14 -13 21 -27 26 -76 145 -91 218 -14 66 -16 252 -16 1555 0 1355 1 1486
17 1560 9 44 21 82 25 83 4 2 8 10 8 18 0 45 103 192 172 245 24 19 45 36 48
39 3 4 12 9 20 13 8 4 22 11 30 17 44 28 157 65 225 73 17 2 780 5 1697 6
l1667 1 21 -22z"/>
<path d="M4237 10480 c-3 -14 -22 -79 -42 -145 -52 -169 -64 -214 -77 -265 -5
-25 -14 -49 -19 -54 -5 -6 -9 -23 -9 -38 l0 -28 155 0 c176 0 168 -5 140 86
-8 27 -24 83 -36 124 -12 41 -28 98 -36 125 -8 28 -21 75 -30 105 -8 30 -21
68 -28 85 l-12 29 -6 -24z"/>
<path d="M7720 7140 l0 -920 100 0 100 0 0 920 0 920 -100 0 -100 0 0 -920z"/>
<path d="M3555 3748 c-3 -7 -4 -427 -3 -933 l3 -920 98 -3 97 -3 0 936 0 935
-95 0 c-67 0 -97 -4 -100 -12z"/>
</g>
</svg>
