<svg width="133" height="133" viewBox="0 0 133 133" fill="none" xmlns="http://www.w3.org/2000/svg">
<g filter="url(#filter0_d_444_407)">
<rect x="8" y="6" width="117" height="117" rx="58.5" fill="#A7F9AB" shape-rendering="crispEdges"/>
<path d="M32.1548 58.84C35.2268 58.84 36.9068 60.584 36.9068 63.272C36.9068 65.944 35.2268 67.72 32.1708 67.72H30.7148V71H27.0668V58.84H32.1548ZM31.4828 64.92C32.7468 64.92 33.2108 64.104 33.2108 63.272C33.2108 62.44 32.7468 61.64 31.4668 61.64H30.7148V64.92H31.4828ZM41.9663 71.224C39.2143 71.224 38.2383 70.28 38.2383 67.24V58.84H41.7263V67.304C41.7263 68.136 42.0783 68.536 42.9903 68.536H43.2303L43.4223 71.112C43.0223 71.192 42.4783 71.224 41.9663 71.224ZM50.3179 62.696H53.8379V71H50.5579L50.3179 69.672C49.8859 70.44 49.1019 71.224 47.6779 71.224C45.7419 71.224 43.9979 69.768 43.9979 66.856C43.9979 64.168 45.5179 62.456 47.5659 62.456C48.9579 62.456 49.8699 63.272 50.3179 64.136V62.696ZM48.9899 68.504C49.8379 68.504 50.3979 67.8 50.3979 66.84C50.3979 65.88 49.8379 65.192 48.9899 65.192C48.1419 65.192 47.5819 65.88 47.5819 66.84C47.5819 67.816 48.1419 68.504 48.9899 68.504ZM60.8658 62.696H64.3858V70.488C64.3858 73.176 62.5458 74.488 59.7618 74.488C57.0258 74.488 55.6658 73.448 55.2338 71.848L58.8018 71.56C58.9458 72.056 59.2018 72.296 59.7778 72.296C60.6098 72.296 60.8658 71.736 60.8658 70.664V69.576C60.2898 70.44 59.3938 70.936 58.3058 70.936C56.1778 70.936 55.3298 69.656 55.3298 67.576V62.696H58.8498V66.856C58.8498 68.04 59.1538 68.36 59.8098 68.36C60.6258 68.36 60.8658 67.624 60.8658 66.712V62.696ZM75.8756 71L74.3236 67.72H73.0116V71H69.3636V58.84H74.4516C77.5236 58.84 79.2036 60.584 79.2036 63.272C79.2036 64.872 78.6116 66.136 77.4596 66.92L79.6036 71H75.8756ZM73.0116 61.64V64.92H73.7796C75.0436 64.92 75.5076 64.104 75.5076 63.272C75.5076 62.44 75.0436 61.64 73.7636 61.64H73.0116ZM84.3398 68.056H88.3878V71H80.6918V58.84H88.3718V61.784H84.3398V63.304H88.1638V66.104H84.3398V68.056ZM93.5429 68.056H97.5909V71H89.8949V58.84H97.5749V61.784H93.5429V63.304H97.3669V66.104H93.5429V68.056ZM102.746 68.056H106.458V71H99.098V58.84H102.746V68.056Z" fill="black"/>
</g>
<defs>
<filter id="filter0_d_444_407" x="0" y="0" width="133" height="133" filterUnits="userSpaceOnUse" color-interpolation-filters="sRGB">
<feFlood flood-opacity="0" result="BackgroundImageFix"/>
<feColorMatrix in="SourceAlpha" type="matrix" values="0 0 0 0 0 0 0 0 0 0 0 0 0 0 0 0 0 0 127 0" result="hardAlpha"/>
<feOffset dy="2"/>
<feGaussianBlur stdDeviation="4"/>
<feComposite in2="hardAlpha" operator="out"/>
<feColorMatrix type="matrix" values="0 0 0 0 0 0 0 0 0 0 0 0 0 0 0 0 0 0 0.12 0"/>
<feBlend mode="normal" in2="BackgroundImageFix" result="effect1_dropShadow_444_407"/>
<feBlend mode="normal" in="SourceGraphic" in2="effect1_dropShadow_444_407" result="shape"/>
</filter>
</defs>
</svg>
